<?xml version="1.0" standalone="no"?><!DOCTYPE svg PUBLIC "-//W3C//DTD SVG 1.1//EN" "http://www.w3.org/Graphics/SVG/1.1/DTD/svg11.dtd"><svg t="1596092727665" class="icon" viewBox="0 0 1024 1024" version="1.1" xmlns="http://www.w3.org/2000/svg" p-id="19975" xmlns:xlink="http://www.w3.org/1999/xlink" width="200" height="200"><defs><style type="text/css"></style></defs><path d="M874.7 874.7h-640c-70.6 0-128-57.4-128-128V192c0-23.6 19.1-42.7 42.7-42.7S192 168.4 192 192v554.7c0 23.5 19.1 42.7 42.7 42.7h640c23.6 0 42.7 19.1 42.7 42.7-0.1 23.5-19.2 42.6-42.7 42.6z" p-id="19976" fill="#8a8a8a"></path><path d="M277.3 618.7c-10.9 0-21.8-4.2-30.2-12.5-16.7-16.7-16.7-43.7 0-60.3l128-128c16.7-16.7 43.7-16.7 60.3 0l55.2 55.2 183.2-183.2c16.7-16.7 43.7-16.7 60.3 0l149.3 149.3c16.7 16.7 16.7 43.7 0 60.3-16.7 16.7-43.7 16.7-60.3 0L704 380.3 520.8 563.5c-16.7 16.7-43.7 16.7-60.3 0l-55.2-55.2-97.8 97.8c-8.3 8.4-19.3 12.6-30.2 12.6z" p-id="19977" fill="#8a8a8a"></path></svg>