<?xml version="1.0" standalone="no"?><!DOCTYPE svg PUBLIC "-//W3C//DTD SVG 1.1//EN" "http://www.w3.org/Graphics/SVG/1.1/DTD/svg11.dtd"><svg t="1596080152009" class="icon" viewBox="0 0 1024 1024" version="1.1" xmlns="http://www.w3.org/2000/svg" p-id="4348" xmlns:xlink="http://www.w3.org/1999/xlink" width="200" height="200"><defs><style type="text/css"></style></defs><path d="M488.434282 450.940342c-10.432607 0-18.892279 8.459672-18.892279 18.894326s8.459672 18.894326 18.892279 18.894326c10.438747 0 18.898419-8.459672 18.898419-18.894326C507.3327 459.398991 498.873028 450.940342 488.434282 450.940342z" p-id="4349" fill="#8a8a8a"></path><path d="M413.255045 450.152397c-10.435677 0-18.898419 8.459672-18.898419 18.894326s8.462742 18.892279 18.898419 18.892279c10.432607 0 18.892279-8.457626 18.892279-18.892279C432.147324 458.611046 423.687652 450.152397 413.255045 450.152397z" p-id="4350" fill="#8a8a8a"></path><path d="M564.801577 469.834668m-18.894326 0a18.464 18.464 0 1 0 37.788651 0 18.464 18.464 0 1 0-37.788651 0Z" p-id="4351" fill="#8a8a8a"></path><path d="M527.226796 47.307446C279.954063 47.307446 79.501682 247.759827 79.501682 495.031537s200.452381 447.725114 447.725114 447.725114 447.725114-200.453405 447.725114-447.725114S774.499529 47.307446 527.226796 47.307446zM527.226796 645.747143c-14.808264 0-29.297256-1.00898-43.355437-2.937912-0.398066 0.242524-143.657864 54.872748-143.657864 54.872748s46.917566-85.352947 47.078225-85.87074c-59.095933-32.136931-97.481172-84.10656-97.481172-142.745075 0-97.580432 106.292861-176.684048 237.416248-176.684048 131.120316 0 237.416248 79.103616 237.416248 176.684048C764.643044 566.645574 658.347113 645.747143 527.226796 645.747143z" p-id="4352" fill="#8a8a8a"></path><path d="M640.378879 469.834668m-18.894326 0a18.464 18.464 0 1 0 37.788651 0 18.464 18.464 0 1 0-37.788651 0Z" p-id="4353" fill="#8a8a8a"></path></svg>